<svg xmlns="http://www.w3.org/2000/svg" xmlns:xlink="http://www.w3.org/1999/xlink" viewBox="0 0 31.5 5.45"><defs><style>.cls-1{fill:#fff;}.cls-2{fill:url(#Degradado_sin_nombre_64);}.cls-3{fill:url(#Degradado_sin_nombre_59);}.cls-4{fill:url(#Degradado_sin_nombre_63);}.cls-5{fill:url(#Degradado_sin_nombre_105);}.cls-6{fill:url(#Degradado_sin_nombre_67);}</style><linearGradient id="Degradado_sin_nombre_64" x1="3.29" y1="0.84" x2="4.64" y2="0.12" gradientUnits="userSpaceOnUse"><stop offset="0.18" stop-color="#3aaa35"/><stop offset="0.77" stop-color="#fff"/></linearGradient><linearGradient id="Degradado_sin_nombre_59" x1="4.89" y1="1.5" x2="3.75" y2="2.53" gradientUnits="userSpaceOnUse"><stop offset="0" stop-color="#fff"/><stop offset="0.05" stop-color="#e8f5e7"/><stop offset="0.18" stop-color="#bae1b8"/><stop offset="0.3" stop-color="#93d090"/><stop offset="0.43" stop-color="#73c26f"/><stop offset="0.56" stop-color="#5ab855"/><stop offset="0.7" stop-color="#48b043"/><stop offset="0.84" stop-color="#3dab39"/><stop offset="1" stop-color="#3aaa35"/></linearGradient><linearGradient id="Degradado_sin_nombre_63" x1="5.14" y1="0.64" x2="3.85" y2="1.63" gradientUnits="userSpaceOnUse"><stop offset="0" stop-color="#fff"/><stop offset="0.59" stop-color="#f9fcf8"/><stop offset="1" stop-color="#3aaa35"/></linearGradient><linearGradient id="Degradado_sin_nombre_105" x1="3.84" y1="1.43" x2="5.17" y2="0.65" gradientUnits="userSpaceOnUse"><stop offset="0" stop-color="#3aaa35"/><stop offset="0.66" stop-color="#fff"/></linearGradient><linearGradient id="Degradado_sin_nombre_67" x1="5.06" y1="1.28" x2="3.96" y2="2.36" gradientUnits="userSpaceOnUse"><stop offset="0" stop-color="#fff"/><stop offset="0.13" stop-color="#fafcf9"/><stop offset="0.99" stop-color="#3aaa35"/></linearGradient></defs><g id="Capa_2" data-name="Capa 2"><g id="Capa_1-2" data-name="Capa 1"><path class="cls-1" d="M7.92,5.34H7V.09h.94V1A2.34,2.34,0,0,1,9.7,0a2,2,0,0,1,1.5.56,1.23,1.23,0,0,1,.38.89V5.34h-.94V1.73a1,1,0,0,0-.28-.7,1.08,1.08,0,0,0-.8-.28,1.39,1.39,0,0,0-.94.47,2.1,2.1,0,0,0-.7,1.5Z"/><path class="cls-1" d="M13.4.56A2.19,2.19,0,0,1,15,0a2.23,2.23,0,0,1,1.64.52,1.43,1.43,0,0,1,.47,1h-.94A.76.76,0,0,0,16,1.08,1.44,1.44,0,0,0,15,.8a1,1,0,0,0-.75.28.69.69,0,0,0-.23.51.42.42,0,0,0,.14.33,2.88,2.88,0,0,0,1.17.42c.41.1.75.19,1,.28a1.68,1.68,0,0,1,.56.33,1.23,1.23,0,0,1,.38.89,1.47,1.47,0,0,1-.47,1A2.39,2.39,0,0,1,15,5.44a2.38,2.38,0,0,1-1.73-.56,1.63,1.63,0,0,1-.47-1.18h.94a1,1,0,0,0,.23.61,1.34,1.34,0,0,0,1,.33,1.54,1.54,0,0,0,1.08-.28.66.66,0,0,0,.18-.47A.64.64,0,0,0,16,3.47a1.2,1.2,0,0,0-.61-.28c-.56-.13-1-.24-1.27-.33a1.64,1.64,0,0,1-.75-.38A1.24,1.24,0,0,1,13,1.59,1.41,1.41,0,0,1,13.4.56Z"/><path class="cls-1" d="M19.12.7a2.5,2.5,0,0,1,3.47,0,2.75,2.75,0,0,1,.8,2,2.73,2.73,0,0,1-.8,2,2.47,2.47,0,0,1-3.47,0,2.72,2.72,0,0,1-.79-2A2.74,2.74,0,0,1,19.12.7Zm.8.52a2,2,0,0,0-.56,1.5,2,2,0,0,0,.51,1.45,1.37,1.37,0,0,0,2,0,1.94,1.94,0,0,0,.52-1.45,2,2,0,0,0-.57-1.5,1.34,1.34,0,0,0-1.87,0Z"/><path class="cls-1" d="M24.09.09h1L26.15,4,27.28.09h1L29.44,4,30.51.09h1L29.9,5.44H29L27.79,1.17,26.58,5.44h-.89Z"/><polygon class="cls-1" points="3.85 4.1 3.08 5.45 0 0.07 1.54 0.07 3.08 2.75 3.08 2.77 3.85 4.1"/><polygon class="cls-2" points="4.61 0.08 3.85 1.42 3.08 0.08 4.61 0.08"/><polygon class="cls-3" points="4.62 2.77 4.62 2.77 3.08 2.77 3.08 2.75 3.85 1.42 4.62 2.77"/><polygon class="cls-4" points="6.16 0.08 5.42 1.37 5.39 1.42 4.61 0.08 6.16 0.08"/><polygon class="cls-5" points="5.38 1.42 3.84 1.42 4.61 0.08 5.38 1.42"/><polygon class="cls-6" points="5.39 1.42 4.61 2.77 3.85 1.42 5.39 1.42"/></g></g></svg>