<svg xmlns="http://www.w3.org/2000/svg" xmlns:xlink="http://www.w3.org/1999/xlink" viewBox="0 0 32 32"><defs><style>.cls-1{fill:#1d1d1b;}.cls-2{fill:url(#Degradado_sin_nombre_141);}.cls-3{fill:url(#Degradado_sin_nombre_109);}.cls-4{fill:url(#Degradado_sin_nombre_137);}.cls-5{fill:url(#Degradado_sin_nombre_146);}.cls-6{fill:url(#Degradado_sin_nombre_149);}.cls-7{fill:none;}</style><linearGradient id="Degradado_sin_nombre_141" x1="16.95" y1="7.4" x2="23" y2="4.15" gradientUnits="userSpaceOnUse"><stop offset="0.34"/><stop offset="0.37" stop-color="#050e04"/><stop offset="0.47" stop-color="#153d13"/><stop offset="0.57" stop-color="#22641f"/><stop offset="0.66" stop-color="#2d8329"/><stop offset="0.76" stop-color="#349930"/><stop offset="0.85" stop-color="#38a634"/><stop offset="0.94" stop-color="#3aaa35"/></linearGradient><linearGradient id="Degradado_sin_nombre_109" x1="27.08" y1="7.66" x2="21.96" y2="12.28" gradientUnits="userSpaceOnUse"><stop offset="0.22" stop-color="#3aaa35"/><stop offset="1"/></linearGradient><linearGradient id="Degradado_sin_nombre_137" x1="28.7" y1="3.86" x2="23.64" y2="7.72" gradientUnits="userSpaceOnUse"><stop offset="0.83" stop-color="#3aaa35"/><stop offset="0.9" stop-color="#39a834"/><stop offset="0.93" stop-color="#37a132"/><stop offset="0.94" stop-color="#33962f"/><stop offset="0.96" stop-color="#2d8529"/><stop offset="0.97" stop-color="#266f22"/><stop offset="0.98" stop-color="#1c531a"/><stop offset="0.99" stop-color="#113310"/><stop offset="1" stop-color="#050f05"/><stop offset="1"/></linearGradient><linearGradient id="Degradado_sin_nombre_146" x1="18.55" y1="10.52" x2="24.51" y2="7.03" gradientUnits="userSpaceOnUse"><stop offset="0.39"/><stop offset="0.47" stop-color="#11310f"/><stop offset="0.56" stop-color="#1f5c1d"/><stop offset="0.64" stop-color="#2b7e27"/><stop offset="0.72" stop-color="#33962f"/><stop offset="0.79" stop-color="#38a533"/><stop offset="0.85" stop-color="#3aaa35"/></linearGradient><linearGradient id="Degradado_sin_nombre_149" x1="26.66" y1="9.64" x2="20.76" y2="13.25" gradientUnits="userSpaceOnUse"><stop offset="0.31" stop-color="#3aaa35"/><stop offset="0.73"/></linearGradient></defs><g id="Capa_2" data-name="Capa 2"><g id="Capa_1-2" data-name="Capa 1"><polygon class="cls-1" points="19.47 22 16 28.05 2.21 3.95 9.11 3.96 16 15.96 16.03 16.01 19.47 22"/><polygon class="cls-2" points="22.88 3.99 19.44 9.97 16 3.99 22.88 3.99"/><polygon class="cls-3" points="22.89 16.02 22.89 16.02 16.03 16.01 16 15.96 19.44 9.98 22.89 16.02"/><polygon class="cls-4" points="29.79 3.99 26.47 9.78 26.35 9.97 22.88 3.99 29.79 3.99"/><polygon class="cls-5" points="26.33 9.97 19.42 9.97 22.86 3.99 26.33 9.97"/><polygon class="cls-6" points="26.35 9.97 22.88 16.03 19.44 9.97 26.35 9.97"/><rect class="cls-7" width="32" height="32"/></g></g></svg>